<svg id="Camada_1" data-name="Camada 1" xmlns="http://www.w3.org/2000/svg" width="64" height="64" viewBox="0 0 64 64">
  <defs>
    <style>
      .cls-1 {
        fill: none;
        stroke: #f8f8f8;
        stroke-linecap: round;
        stroke-linejoin: round;
        stroke-width: 2px;
      }
    </style>
  </defs>
  <g>
    <path class="cls-1" d="M14.5,23.5c-1.21,6-.37,12-.48,18-.1,6.5,0,13,0,19.38,10.49,4.32,21.2,4,32,1.6,2.84-.64,4.22-2,4.12-5.48C49.8,45.84,50,34.67,50,23.5"/>
    <path class="cls-1" d="M13,32c-2.83-.17-5.69-.18-8.49-.55C2,31.13.34,30.09,1.47,27c1.79-5,3.24-10,5.08-15a8.65,8.65,0,0,1,5.91-5.65c6.25-2,12.19-4.42,19-4.55C39.28,1.67,46,4.44,53,7c2.8,1,3.6,3.34,4.42,5.57,2.05,5.59,3.79,11.29,5.67,17C59.58,33.14,54.86,30.5,51,32"/>
    <path class="cls-1" d="M20,4.5c4.27,8.84,9.84,11.23,17,8.12,3.91-1.7,5.24-4.91,7-8.12"/>
    <path class="cls-1" d="M24,3c1.17,4.05,3.34,7.15,8,6.94,4.32-.19,7.25-2.42,8-6.94"/>
  </g>
</svg>
